<?xml version="1.0" encoding="UTF-8"?>
<!DOCTYPE svg PUBLIC "-//W3C//DTD SVG 1.1//EN" "http://www.w3.org/Graphics/SVG/1.1/DTD/svg11.dtd">
<svg xmlns="http://www.w3.org/2000/svg" version="1.1" width="512px" height="512px"
  style="shape-rendering:geometricPrecision; text-rendering:geometricPrecision; image-rendering:optimizeQuality; fill-rule:evenodd; clip-rule:evenodd"
  xmlns:xlink="http://www.w3.org/1999/xlink">
  <g>
    <path style="opacity:1" fill="#f9f9f9"
      d="M 40.5,-0.5 C 183.833,-0.5 327.167,-0.5 470.5,-0.5C 491.833,5.5 505.5,19.1667 511.5,40.5C 511.5,183.833 511.5,327.167 511.5,470.5C 505.5,491.833 491.833,505.5 470.5,511.5C 327.167,511.5 183.833,511.5 40.5,511.5C 19.1667,505.5 5.5,491.833 -0.5,470.5C -0.5,327.167 -0.5,183.833 -0.5,40.5C 5.5,19.1667 19.1667,5.5 40.5,-0.5 Z" />
  </g>
  <g>
    <path style="opacity:1" fill="#343434"
      d="M 342.5,102.5 C 374.697,99.2966 404.03,106.797 430.5,125C 433.688,127.432 436.688,130.099 439.5,133C 435.872,139.755 432.372,146.588 429,153.5C 425.1,158.533 420.267,159.7 414.5,157C 391.396,137.854 365.229,131.688 336,138.5C 310.851,146.789 299.851,164.122 303,190.5C 303.422,194.009 304.422,197.343 306,200.5C 315.918,213.391 328.751,222.224 344.5,227C 364.215,233.016 383.549,240.016 402.5,248C 439.034,266.579 452.868,296.079 444,336.5C 433.414,377.419 407.247,401.252 365.5,408C 320.718,414.661 282.718,401.994 251.5,370C 255.317,363.51 259.151,357.01 263,350.5C 267.794,345.008 273.294,344.174 279.5,348C 292.127,359.151 306.46,367.484 322.5,373C 341.936,377.314 360.936,375.981 379.5,369C 392.896,362.397 401.729,351.897 406,337.5C 412.777,310.557 403.61,291.39 378.5,280C 355.693,272.398 333.027,264.398 310.5,256C 273.577,238.324 258.744,209.158 266,168.5C 273.849,136.316 293.683,115.483 325.5,106C 331.229,104.432 336.896,103.265 342.5,102.5 Z" />
  </g>
  <g>
    <path style="opacity:1" fill="#343434"
      d="M 161.5,105.5 C 175.167,105.5 188.833,105.5 202.5,105.5C 202.667,174.834 202.5,244.167 202,313.5C 196.375,381.459 159.542,413.292 91.5,409C 82.7583,407.805 74.0916,406.305 65.5,404.5C 65.7382,395.117 66.5715,385.784 68,376.5C 70.0157,373.41 72.8491,371.743 76.5,371.5C 95.0224,377.157 113.356,376.657 131.5,370C 145.261,362.323 154.094,350.823 158,335.5C 159.245,329.211 160.245,322.878 161,316.5C 161.5,246.167 161.667,175.834 161.5,105.5 Z" />
  </g>
</svg>